<mxfile host="app.diagrams.net" agent="Mozilla/5.0 (Windows NT 10.0; Win64; x64; rv:136.0) Gecko/20100101 Firefox/136.0" version="26.1.1">
  <diagram name="Page-1" id="PF-AA69pMLv-hCIJubcb">
    <mxGraphModel dx="996" dy="664" grid="1" gridSize="10" guides="1" tooltips="1" connect="1" arrows="1" fold="1" page="1" pageScale="1" pageWidth="850" pageHeight="1100" math="0" shadow="0">
      <root>
        <mxCell id="0" />
        <mxCell id="1" parent="0" />
        <mxCell id="a_ThqK0qFvK3HV-V5m-_-1" value="userInterface:&lt;br&gt;View&lt;br&gt;Controller" style="shape=folder;fontStyle=1;spacingTop=10;tabWidth=40;tabHeight=14;tabPosition=left;html=1;whiteSpace=wrap;" vertex="1" parent="1">
          <mxGeometry x="120" y="160" width="190" height="110" as="geometry" />
        </mxCell>
        <mxCell id="a_ThqK0qFvK3HV-V5m-_-2" value="&lt;div&gt;businessLogic:&lt;/div&gt;&lt;div&gt;TasksManagement&lt;br&gt;Utility&lt;/div&gt;" style="shape=folder;fontStyle=1;spacingTop=10;tabWidth=40;tabHeight=14;tabPosition=left;html=1;whiteSpace=wrap;" vertex="1" parent="1">
          <mxGeometry x="120" y="310" width="190" height="110" as="geometry" />
        </mxCell>
        <mxCell id="a_ThqK0qFvK3HV-V5m-_-4" style="edgeStyle=orthogonalEdgeStyle;rounded=0;orthogonalLoop=1;jettySize=auto;html=1;entryX=0.5;entryY=0.091;entryDx=0;entryDy=0;entryPerimeter=0;" edge="1" parent="1" source="a_ThqK0qFvK3HV-V5m-_-1" target="a_ThqK0qFvK3HV-V5m-_-2">
          <mxGeometry relative="1" as="geometry" />
        </mxCell>
        <mxCell id="a_ThqK0qFvK3HV-V5m-_-5" value="&lt;div&gt;dataAccess:&lt;/div&gt;&lt;div&gt;SerializationOperations&lt;/div&gt;" style="shape=folder;fontStyle=1;spacingTop=10;tabWidth=40;tabHeight=14;tabPosition=left;html=1;whiteSpace=wrap;" vertex="1" parent="1">
          <mxGeometry x="120" y="470" width="190" height="110" as="geometry" />
        </mxCell>
        <mxCell id="a_ThqK0qFvK3HV-V5m-_-7" value="dataModel:&lt;br&gt;Task&lt;br&gt;SimpleTask&lt;br&gt;ComplexTask&lt;br&gt;Employee" style="shape=folder;fontStyle=1;spacingTop=10;tabWidth=40;tabHeight=14;tabPosition=left;html=1;whiteSpace=wrap;" vertex="1" parent="1">
          <mxGeometry x="410" y="320" width="190" height="110" as="geometry" />
        </mxCell>
        <mxCell id="a_ThqK0qFvK3HV-V5m-_-8" style="edgeStyle=orthogonalEdgeStyle;rounded=0;orthogonalLoop=1;jettySize=auto;html=1;entryX=0.25;entryY=1;entryDx=0;entryDy=0;entryPerimeter=0;" edge="1" parent="1" source="a_ThqK0qFvK3HV-V5m-_-5" target="a_ThqK0qFvK3HV-V5m-_-7">
          <mxGeometry relative="1" as="geometry" />
        </mxCell>
        <mxCell id="a_ThqK0qFvK3HV-V5m-_-9" style="edgeStyle=orthogonalEdgeStyle;rounded=0;orthogonalLoop=1;jettySize=auto;html=1;entryX=0;entryY=0;entryDx=0;entryDy=62;entryPerimeter=0;" edge="1" parent="1" source="a_ThqK0qFvK3HV-V5m-_-2" target="a_ThqK0qFvK3HV-V5m-_-7">
          <mxGeometry relative="1" as="geometry" />
        </mxCell>
        <mxCell id="a_ThqK0qFvK3HV-V5m-_-10" style="edgeStyle=orthogonalEdgeStyle;rounded=0;orthogonalLoop=1;jettySize=auto;html=1;entryX=0.454;entryY=0.138;entryDx=0;entryDy=0;entryPerimeter=0;" edge="1" parent="1" source="a_ThqK0qFvK3HV-V5m-_-1" target="a_ThqK0qFvK3HV-V5m-_-7">
          <mxGeometry relative="1" as="geometry" />
        </mxCell>
        <mxCell id="a_ThqK0qFvK3HV-V5m-_-11" style="edgeStyle=orthogonalEdgeStyle;rounded=0;orthogonalLoop=1;jettySize=auto;html=1;entryX=0.5;entryY=1;entryDx=0;entryDy=0;entryPerimeter=0;exitX=0;exitY=0;exitDx=115;exitDy=14;exitPerimeter=0;" edge="1" parent="1" source="a_ThqK0qFvK3HV-V5m-_-5" target="a_ThqK0qFvK3HV-V5m-_-2">
          <mxGeometry relative="1" as="geometry" />
        </mxCell>
      </root>
    </mxGraphModel>
  </diagram>
</mxfile>
